<mxfile host="Electron" agent="Mozilla/5.0 (Macintosh; Intel Mac OS X 10_15_7) AppleWebKit/537.36 (KHTML, like Gecko) draw.io/27.0.9 Chrome/134.0.6998.205 Electron/35.4.0 Safari/537.36" version="27.0.9">
  <diagram name="Page-1" id="9rbPrN32QuSk9-W0qlKk">
    <mxGraphModel dx="1106" dy="759" grid="1" gridSize="10" guides="1" tooltips="1" connect="1" arrows="1" fold="1" page="1" pageScale="1" pageWidth="1700" pageHeight="1100" math="0" shadow="0">
      <root>
        <mxCell id="0" />
        <mxCell id="1" parent="0" />
        <mxCell id="cARIRFYykQStAHjUf8yy-5" style="edgeStyle=orthogonalEdgeStyle;rounded=0;orthogonalLoop=1;jettySize=auto;html=1;exitX=1;exitY=0.5;exitDx=0;exitDy=0;" edge="1" parent="1" source="cARIRFYykQStAHjUf8yy-1" target="cARIRFYykQStAHjUf8yy-4">
          <mxGeometry relative="1" as="geometry" />
        </mxCell>
        <mxCell id="cARIRFYykQStAHjUf8yy-6" style="edgeStyle=orthogonalEdgeStyle;rounded=0;orthogonalLoop=1;jettySize=auto;html=1;exitX=0.5;exitY=0;exitDx=0;exitDy=0;entryX=0;entryY=0.5;entryDx=0;entryDy=0;" edge="1" parent="1" source="cARIRFYykQStAHjUf8yy-1" target="cARIRFYykQStAHjUf8yy-2">
          <mxGeometry relative="1" as="geometry" />
        </mxCell>
        <mxCell id="cARIRFYykQStAHjUf8yy-1" value="React App" style="rounded=0;whiteSpace=wrap;html=1;" vertex="1" parent="1">
          <mxGeometry x="290" y="310" width="120" height="60" as="geometry" />
        </mxCell>
        <mxCell id="cARIRFYykQStAHjUf8yy-2" value="DeepGram" style="rounded=0;whiteSpace=wrap;html=1;fillColor=#647687;strokeColor=#314354;fontColor=#ffffff;" vertex="1" parent="1">
          <mxGeometry x="470" y="220" width="120" height="60" as="geometry" />
        </mxCell>
        <mxCell id="cARIRFYykQStAHjUf8yy-11" style="edgeStyle=orthogonalEdgeStyle;rounded=0;orthogonalLoop=1;jettySize=auto;html=1;exitX=0;exitY=0.75;exitDx=0;exitDy=0;entryX=1;entryY=0.75;entryDx=0;entryDy=0;" edge="1" parent="1" source="cARIRFYykQStAHjUf8yy-4" target="cARIRFYykQStAHjUf8yy-1">
          <mxGeometry relative="1" as="geometry" />
        </mxCell>
        <mxCell id="cARIRFYykQStAHjUf8yy-4" value="Back-end" style="rounded=0;whiteSpace=wrap;html=1;" vertex="1" parent="1">
          <mxGeometry x="560" y="310" width="120" height="60" as="geometry" />
        </mxCell>
        <mxCell id="cARIRFYykQStAHjUf8yy-7" value="Speech -&amp;gt; Text" style="text;html=1;align=center;verticalAlign=middle;whiteSpace=wrap;rounded=0;" vertex="1" parent="1">
          <mxGeometry x="360" y="220" width="90" height="30" as="geometry" />
        </mxCell>
        <mxCell id="cARIRFYykQStAHjUf8yy-8" value="Store Transcription" style="text;html=1;align=center;verticalAlign=middle;whiteSpace=wrap;rounded=0;" vertex="1" parent="1">
          <mxGeometry x="423" y="310" width="110" height="30" as="geometry" />
        </mxCell>
        <mxCell id="cARIRFYykQStAHjUf8yy-12" value="Hydrated Transcription" style="text;html=1;align=center;verticalAlign=middle;resizable=0;points=[];autosize=1;strokeColor=none;fillColor=none;" vertex="1" parent="1">
          <mxGeometry x="413" y="355" width="140" height="30" as="geometry" />
        </mxCell>
      </root>
    </mxGraphModel>
  </diagram>
</mxfile>
